<?xml version="1.0" encoding="UTF-8" standalone="no"?>
<svg
   xmlns:dc="http://purl.org/dc/elements/1.1/"
   xmlns:cc="http://creativecommons.org/ns#"
   xmlns:rdf="http://www.w3.org/1999/02/22-rdf-syntax-ns#"
   xmlns:svg="http://www.w3.org/2000/svg"
   xmlns="http://www.w3.org/2000/svg"
   xmlns:sodipodi="http://sodipodi.sourceforge.net/DTD/sodipodi-0.dtd"
   xmlns:inkscape="http://www.inkscape.org/namespaces/inkscape"
   version="1.0"
   width="200"
   height="200"
   viewBox="0 0 160 160"
   preserveAspectRatio="xMidYMid meet"
   id="svg2"
   inkscape:version="0.48.4 r9939"
   sodipodi:docname="jk.svg">
  <title
     id="title3002">eTb  Bogotá Logo</title>
  <defs
     id="defs18" />
  <sodipodi:namedview
     pagecolor="#ffffff"
     bordercolor="#666666"
     borderopacity="1"
     objecttolerance="10"
     gridtolerance="10"
     guidetolerance="10"
     inkscape:pageopacity="0"
     inkscape:pageshadow="2"
     inkscape:window-width="1600"
     inkscape:window-height="844"
     id="namedview16"
     showgrid="false"
     inkscape:zoom="0.99"
     inkscape:cx="144.42022"
     inkscape:cy="77.747958"
     inkscape:window-x="-4"
     inkscape:window-y="-4"
     inkscape:window-maximized="1"
     inkscape:current-layer="svg2" />
  <metadata
     id="metadata4">
Created by potrace 1.12, written by Peter Selinger 2001-2015
<rdf:RDF>
  <cc:Work
     rdf:about="">
    <dc:format>image/svg+xml</dc:format>
    <dc:type
       rdf:resource="http://purl.org/dc/dcmitype/StillImage" />
    <dc:title>eTb  Bogotá Logo</dc:title>
    <dc:description></dc:description>
  </cc:Work>
</rdf:RDF>
</metadata>
  <g
     transform="matrix(0.01784362,0,0,-0.01783568,0,160)"
     id="g6"
     style="fill:#000000;stroke:none">
    <path
       d="M 4285,8824 C 3209,8755 2263,8340 1516,7610 c -93,-91 -215,-219 -271,-285 -102,-120 -225,-278 -225,-288 0,-3 -10,-17 -23,-31 -12,-13 -29,-37 -37,-53 -8,-15 -22,-36 -31,-46 C 896,6870 728,6577 651,6421 203,5512 94,4447 346,3440 384,3286 405,3218 480,3005 646,2530 972,2003 1357,1588 1789,1120 2338,741 2915,512 3854,139 4945,112 5909,436 c 912,307 1695,915 2227,1730 44,66 90,142 104,169 14,27 30,55 36,61 20,23 153,291 212,429 33,77 74,185 92,240 18,55 39,114 46,130 18,45 70,235 98,360 64,285 95,544 103,860 15,603 -82,1162 -294,1700 -64,163 -165,379 -182,389 -6,4 -11,13 -11,21 0,46 -273,471 -424,660 -750,935 -1761,1495 -2926,1620 -140,15 -581,27 -705,19 z M 6370,7030 c 327,-18 747,-62 850,-90 60,-16 90,-49 90,-100 0,-75 -71,-314 -126,-422 -43,-86 -65,-90 -279,-59 -252,37 -425,46 -887,46 -245,0 -449,-2 -452,-5 -2,-3 -304,-890 -669,-1972 -366,-1082 -674,-1980 -686,-1996 -44,-63 -68,-67 -361,-67 -238,0 -270,2 -307,19 -80,36 -88,-3 166,753 126,373 418,1239 650,1924 231,685 421,1249 421,1254 0,13 -145,-2 -290,-30 -267,-52 -564,-131 -847,-227 -203,-69 -216,-69 -250,-6 -15,27 -18,65 -21,222 -6,311 -10,307 318,414 577,189 1204,304 1850,341 213,12 618,12 830,1 z m 75,-1081 c 168,-12 216,-29 242,-85 l 18,-36 -258,-767 c -141,-421 -257,-772 -257,-778 0,-24 20,-12 122,73 324,271 700,443 969,444 93,0 210,-29 289,-71 199,-106 306,-383 279,-720 -56,-703 -488,-1418 -1065,-1765 -250,-150 -517,-229 -820,-241 -349,-14 -643,79 -808,257 -62,68 -127,190 -153,290 -21,84 -21,234 1,324 17,72 974,2909 1006,2982 18,42 68,88 105,97 36,9 188,7 330,-4 z M 3165,5651 c 304,-80 482,-281 525,-592 22,-163 -25,-377 -118,-533 -125,-211 -406,-413 -709,-510 -247,-79 -483,-111 -760,-103 -164,4 -192,3 -197,-10 -11,-28 -6,-228 8,-278 38,-144 141,-252 286,-301 84,-29 386,-26 527,4 151,33 274,75 411,143 118,58 124,60 147,45 14,-9 27,-26 30,-39 7,-26 -39,-184 -96,-332 -48,-123 -69,-149 -185,-217 -162,-95 -360,-164 -557,-192 -329,-48 -590,-21 -802,84 -181,88 -267,176 -361,365 -201,407 -156,983 117,1504 115,220 230,373 409,544 264,253 561,394 930,441 86,11 316,-3 395,-23 z"
       id="path10"
       style="fill:#0088aa"
       inkscape:connector-curvature="0" />
    <path
       d="m 6810,4174 c -163,-31 -339,-140 -520,-323 -181,-183 -319,-378 -435,-616 -101,-206 -137,-314 -143,-418 -6,-113 11,-160 80,-221 59,-54 96,-66 204,-66 292,0 564,199 776,567 143,250 255,590 274,835 8,107 -7,175 -46,213 -25,24 -38,28 -97,31 -37,1 -79,0 -93,-2 z"
       id="path12"
       style="fill:#0088aa"
       inkscape:connector-curvature="0" />
    <path
       d="m 2636,5179 c -85,-29 -161,-81 -246,-168 -122,-125 -241,-313 -314,-495 -56,-138 -65,-130 127,-123 177,6 259,20 409,71 178,60 285,142 344,262 33,66 38,84 42,173 3,64 0,111 -8,136 -16,50 -84,123 -135,146 -53,25 -144,24 -219,-2 z"
       id="path14"
       style="fill:#0088aa"
       inkscape:connector-curvature="0" />
  </g>
</svg>
